# xmcd
# Copyright (C) 1995-1998 Ti Kan
#
# Track frame offsets:
#       150
#       19113
#       42290
#       67801
#       82327
#       96853
#       118058
#       140837
#       168159
#       189387
#
# Disc length: 2640 seconds
#
# Revision: 0
# Processed by: cddbd v1.5.2PL0 Copyright (c) Steve Scherf et al.
# Submitted via: CD-Transfer v1.0
#
DISCID=860a4e0a
DTITLE=Beetan Ton - Beetan Ton
DYEAR=09
DGENRE=
TTITLE0=Kako Znati
TTITLE1=Pitam Se
TTITLE2=Kodeks Prijateljstva
TTITLE3=Balkanska
TTITLE4=Bosanski Lonac
TTITLE5=Dragi Tata
TTITLE6=Growing Up
TTITLE7=Nema Problema
TTITLE8=Kaos
TTITLE9=Delta Mississippi Blues
EXTD=
EXTT0=
EXTT1=
EXTT2=
EXTT3=
EXTT4=
EXTT5=
EXTT6=
EXTT7=
EXTT8=
EXTT9=
PLAYORDER=
